# xmcd CD database file
#
# Track frame offsets:
#	150
#	26105
#	45817
#	68467
#	87747
#	117572
#	139401
#
# Disc length: 2307 seconds
#
# Revision: 0
# Processed by: cddbd v1.5PL3 Copyright (c) Steve Scherf et al.
# Submitted via: CDex 1.51
#
DISCID=5e090107
DTITLE=John serry - Jazziz
DYEAR=1900
DGENRE=Jazz
TTITLE0=Acrobat
TTITLE1=Jazziz
TTITLE2=Doc Holiday
TTITLE3=Penumbra
TTITLE4=Song For You
TTITLE5=UpStart
TTITLE6=Don Quixote's Hustle
EXTD=
EXTT0=
EXTT1=
EXTT2=
EXTT3=
EXTT4=
EXTT5=
EXTT6=
PLAYORDER=
